<?xml version="1.0" encoding="utf-8"?>
<!-- Generator: Adobe Illustrator 16.0.0, SVG Export Plug-In . SVG Version: 6.00 Build 0)  -->
<!DOCTYPE svg PUBLIC "-//W3C//DTD SVG 1.1//EN" "http://www.w3.org/Graphics/SVG/1.1/DTD/svg11.dtd">
<svg version="1.1" id="Layer_1" xmlns="http://www.w3.org/2000/svg" xmlns:xlink="http://www.w3.org/1999/xlink" x="0px" y="0px"
	 width="898.166px" height="768.595px" viewBox="103.468 1.92 898.166 768.595"
	 enable-background="new 103.468 1.92 898.166 768.595" xml:space="preserve">
<title>logo_simbolo</title>
<g>
	<polygon fill="#FFFFFF" points="482.675,547.481 482.277,535.257 159.384,546.102 157.204,546.194 157.61,558.429 480.497,547.572 
			"/>
	<path fill="#FFFFFF" d="M602.865,515.407l1.892-1.093l-6.127-10.604l-35.134,20.293l-15.924-15.084l376.144-397.215l-8.883-8.408
		l-376.15,397.202l-11.18-10.582l-1.582-1.503l-8.414,8.899l12.754,12.073l-4.918,5.2L253.121,43.083l-1.097-1.887l-10.603,6.122
		l275.13,476.544l-23.152,24.45l-1.5,1.591l8.892,8.425l22.147-23.396l5.406,9.365l-209.503,120.96l-1.896,1.097l6.131,10.602
		l211.392-122.052l13.405,23.221l1.097,1.896l10.602-6.144l-14.494-25.098l16.634-9.609l190.375,180.289l1.582,1.488l8.411-8.877
		L572.769,532.783L602.865,515.407z M552.431,530.391l-13.478,7.784l-7.229-12.528l7.424-7.834L552.431,530.391z"/>
	<path fill="#FFFFFF" d="M676.628,526.276c0,72.85-59.058,131.904-131.906,131.904c-72.853,0-131.905-59.056-131.905-131.904
		c0-72.852,59.054-131.907,131.905-131.907C617.573,394.368,676.628,453.426,676.628,526.276"/>
	<path fill="#FFFFFF" d="M1001.634,107.452c0,45.465-36.854,82.318-82.318,82.318c-45.461,0-82.317-36.854-82.317-82.318
		c0-45.457,36.856-82.311,82.317-82.311C964.781,25.141,1001.634,61.996,1001.634,107.452"/>
	<path fill="#FFFFFF" d="M115.979,586.83c-19.07-22.867-15.995-56.864,6.878-75.941c22.862-19.065,56.87-15.997,75.943,6.885
		c19.071,22.866,15.995,56.862-6.879,75.94C169.054,612.781,135.056,609.698,115.979,586.83"/>
	<path fill="#FFFFFF" d="M338.652,714.227c-24.798,8.068-51.445-5.506-59.506-30.317c-8.059-24.806,5.516-51.442,30.313-59.502
		c24.81-8.061,51.452,5.515,59.517,30.316C377.034,679.528,363.457,706.169,338.652,714.227"/>
	<path fill="#FFFFFF" d="M812.252,723.289c0,26.08-21.145,47.226-47.221,47.226c-26.084,0-47.221-21.146-47.221-47.226
		c0-26.081,21.137-47.227,47.221-47.227C791.111,676.063,812.252,697.207,812.252,723.289"/>
	<path fill="#FFFFFF" d="M215.388,136.851c-31.823-28.457-34.555-77.324-6.103-109.153c28.452-31.827,77.33-34.556,109.15-6.105
		C350.263,50.05,353,98.922,324.541,130.748C296.084,162.577,247.217,165.306,215.388,136.851"/>
</g>
</svg>
