<?xml version="1.0" encoding="utf-8"?>
<!-- Generator: Adobe Illustrator 16.0.0, SVG Export Plug-In . SVG Version: 6.00 Build 0)  -->
<!DOCTYPE svg PUBLIC "-//W3C//DTD SVG 1.1//EN" "http://www.w3.org/Graphics/SVG/1.1/DTD/svg11.dtd">
<svg version="1.1" id="Camada_1" xmlns="http://www.w3.org/2000/svg" xmlns:xlink="http://www.w3.org/1999/xlink" x="0px" y="0px"
	 width="521.571px" height="410.956px" viewBox="14.713 25.044 521.571 410.956"
	 enable-background="new 14.713 25.044 521.571 410.956" xml:space="preserve">
<g>
	<polygon fill="#FFFFFF" points="257.994,192.923 257.894,189.861 177,192.578 176.454,192.601 176.556,195.666 257.448,192.947 	
		"/>
	<path fill="#FFFFFF" d="M288.104,184.887l0.476-0.274l-1.535-2.656l-8.802,5.084l-3.989-3.779l94.234-99.514l-2.226-2.106
		l-94.236,99.511l-2.801-2.652l-0.396-0.375l-2.107,2.229l3.194,3.024l-1.231,1.303l-68.2-118.125l-0.273-0.473l-2.656,1.534
		l68.928,119.388l-5.8,6.125l-0.375,0.398l2.227,2.11l5.55-5.86l1.354,2.346l-52.488,30.305l-0.475,0.273l1.536,2.656l52.96-30.578
		l3.357,5.817l0.274,0.476l2.656-1.541l-3.632-6.287l4.167-2.407l47.693,45.168l0.396,0.373l2.106-2.224l-47.428-44.918
		L288.104,184.887z M275.47,188.641l-3.376,1.95l-1.813-3.139l1.859-1.963L275.47,188.641z"/>
	<path fill="#FFFFFF" d="M306.585,187.611c0,18.25-14.795,33.045-33.046,33.045s-33.046-14.795-33.046-33.045
		c0-18.252,14.794-33.047,33.046-33.047S306.585,169.359,306.585,187.611"/>
	<path fill="#FFFFFF" d="M388.01,82.682c0,11.391-9.233,20.624-20.623,20.624c-11.392,0-20.624-9.233-20.624-20.624
		c0-11.388,9.232-20.621,20.624-20.621C378.776,62.061,388.01,71.295,388.01,82.682"/>
	<path fill="#FFFFFF" d="M166.126,202.781c-4.777-5.729-4.007-14.246,1.724-19.024c5.729-4.776,14.248-4.009,19.025,1.724
		c4.777,5.729,4.007,14.246-1.725,19.025C179.423,209.283,170.905,208.51,166.126,202.781"/>
	<path fill="#FFFFFF" d="M221.912,234.699c-6.212,2.021-12.89-1.381-14.908-7.598c-2.02-6.214,1.383-12.888,7.595-14.906
		c6.216-2.02,12.891,1.381,14.91,7.596S228.126,232.678,221.912,234.699"/>
	<path fill="#FFFFFF" d="M340.563,236.968c0,6.533-5.298,11.832-11.83,11.832c-6.535,0-11.831-5.297-11.831-11.832
		c0-6.534,5.296-11.832,11.831-11.832C335.266,225.136,340.563,230.434,340.563,236.968"/>
	<path fill="#FFFFFF" d="M191.031,90.048c-7.973-7.129-8.656-19.372-1.528-27.346s19.374-8.658,27.346-1.53
		c7.974,7.129,8.659,19.373,1.529,27.347C211.248,96.493,199.005,97.177,191.031,90.048"/>
</g>
<g>
	<path fill="#FFFFFF" d="M81.001,376.33c-0.693,0.845-1.437,1.675-2.214,2.465c-6.067,6.182-13.492,9.314-22.066,9.314
		c-7.643,0-14.365-2.504-20.002-7.439l50.133-51.047l-0.599-0.683c-0.39-0.45-0.805-0.898-1.243-1.345
		c-1.144-1.166-2.311-2.254-3.484-3.25c-7.051-5.752-15.396-8.669-24.805-8.669c-10.957,0-20.45,4.01-28.222,11.919
		c-7.761,7.905-11.696,17.566-11.696,28.706c0,11.197,3.936,20.879,11.696,28.778C36.268,392.989,45.763,397,56.72,397
		c11.004,0,20.521-4.011,28.289-11.92c1.59-1.616,3.028-3.332,4.285-5.098l0.742-1.052l-8.598-3.138L81.001,376.33z M25.573,356.301
		c0-8.739,3.078-16.297,9.148-22.453c6.071-6.156,13.469-9.277,21.999-9.277c6.685,0,12.669,1.892,17.809,5.63l-43.442,44.232
		C27.427,369.2,25.573,363.105,25.573,356.301"/>
	<path fill="#FFFFFF" d="M136.476,285.183c-8.851-3.049-16.606-1.628-22.797,4.215c-3.889,4.011-6.01,8.865-6.306,14.479v18.227
		h-7.095v8.462h7.095v64.413h8.344v-64.413h14.187v-8.462h-14.187v-17.759c0.133-3.533,1.406-6.458,3.868-8.919
		c4.307-3.969,8.978-4.914,14.191-2.642l0.973,0.428l2.652-7.709L136.476,285.183z"/>
	<path fill="#FFFFFF" d="M177.291,324.571c8.578,0,16.001,3.108,22.05,9.217c0.794,0.856,1.544,1.719,2.228,2.555l0.447,0.544
		l8.603-3.229l-0.761-1.04c-1.254-1.723-2.693-3.41-4.274-5.022c-7.77-7.909-17.288-11.919-28.292-11.919
		c-10.952,0-20.45,4.01-28.219,11.919c-7.764,7.905-11.7,17.566-11.7,28.706c0,11.197,3.937,20.873,11.7,28.778
		c7.769,7.909,17.264,11.92,28.219,11.92c11.006,0,20.525-4.011,28.292-11.92c1.584-1.616,3.029-3.332,4.282-5.103l0.745-1.047
		l-8.601-3.138l-0.441,0.542c-0.68,0.835-1.426,1.664-2.208,2.46c-6.071,6.182-13.497,9.314-22.069,9.314
		c-8.525,0-15.929-3.133-21.997-9.314c-6.069-6.181-9.149-13.75-9.149-22.493c0-8.739,3.077-16.297,9.149-22.453
		C161.362,327.692,168.765,324.571,177.291,324.571"/>
	<path fill="#FFFFFF" d="M293.902,330.261c-0.749-0.91-1.538-1.8-2.359-2.664c-7.771-7.911-17.288-11.921-28.291-11.921
		c-10.955,0-20.449,4.01-28.218,11.921c-7.764,7.903-11.699,17.586-11.699,28.778c0,11.146,3.936,20.805,11.699,28.704
		c7.766,7.909,17.263,11.92,28.218,11.92c11.003,0,20.522-4.011,28.299-11.93c0.818-0.857,1.603-1.745,2.352-2.656v12.565h8.347
		v-72.875h-8.347V330.261z M293.902,362.709c-1.151,6.046-4.038,11.459-8.581,16.085c-6.07,6.182-13.496,9.314-22.069,9.314
		c-8.576,0-16.002-3.12-22.066-9.276c-6.073-6.16-9.153-13.718-9.153-22.457c0-8.743,3.082-16.313,9.156-22.494
		c6.064-6.177,13.489-9.311,22.063-9.311c8.571,0,15.999,3.134,22.069,9.311c4.543,4.629,7.43,10.065,8.581,16.155V362.709z"/>
	<polygon fill="#FFFFFF" points="371.168,322.102 321.565,322.102 321.565,330.566 356.834,330.566 320.876,394.979 
		373.173,394.979 373.173,386.515 335.14,386.515 	"/>
	<path fill="#FFFFFF" d="M426.708,360.159c-2.55-1.22-4.565-2.563-5.989-3.988c-1.466-1.49-2.173-3.234-2.173-5.337
		c0-2.124,0.707-3.878,2.17-5.352c1.458-1.474,3.168-2.188,5.222-2.188c2.058,0,3.761,0.709,5.215,2.166
		c0.818,0.835,1.411,1.75,1.763,2.731l0.347,0.953l4.504-1.81l-0.267-0.867c-0.515-1.652-1.46-3.163-2.796-4.469
		c-2.423-2.444-5.373-3.684-8.766-3.684c-3.418,0-6.368,1.246-8.771,3.699c-2.393,2.453-3.604,5.416-3.604,8.819
		c0,3.467,1.212,6.463,3.607,8.902c2.313,2.356,5.482,4.226,9.428,5.569c3.077,1.289,5.71,3.034,7.82,5.185
		c2.368,2.405,3.517,5.228,3.517,8.619c0,3.42-1.148,6.247-3.517,8.657c-2.364,2.405-5.136,3.576-8.479,3.576
		c-3.321,0-6.082-1.171-8.447-3.576c-2.005-2.041-3.168-4.459-3.456-7.183l-0.13-1.258l-4.79,1.777l0.116,0.786
		c0.522,3.549,2.117,6.7,4.74,9.372c3.291,3.375,7.32,5.088,11.967,5.088c4.645,0,8.669-1.697,11.963-5.05
		c3.289-3.349,4.951-7.449,4.951-12.19c0-4.718-1.666-8.799-4.951-12.12C434.882,363.913,431.114,361.615,426.708,360.159"/>
	<path fill="#FFFFFF" d="M479.301,357.818c0-5.174-1.825-9.656-5.425-13.323c-3.013-3.065-6.72-4.921-11.022-5.519l-15.236-0.009
		V395.7h4.988v-18.996h8.166c0.127,0,0.253-0.005,0.383-0.01l11.982,19.006h6.063l-12.661-19.878
		c2.719-0.895,5.181-2.454,7.338-4.649C477.475,367.504,479.301,363.013,479.301,357.818 M460.771,371.626h-8.166v-27.586h8.166
		c3.749,0,6.868,1.316,9.536,4.025c2.673,2.709,3.973,5.899,3.973,9.752c0,3.85-1.3,7.048-3.973,9.768
		C467.639,370.305,464.52,371.626,460.771,371.626"/>
	<polygon fill="#FFFFFF" points="528.48,338.967 508.881,373.561 489.246,338.967 483.541,338.967 484.357,340.426 484.366,395.7 
		489.351,395.7 489.351,349.235 508.884,383.595 528.375,349.241 528.375,395.7 533.367,395.7 533.367,340.442 534.194,338.967 	"/>
</g>
</svg>
